<svg width="760" height="540" viewBox="0 0 760 540" xmlns="http://www.w3.org/2000/svg" role="img" aria-label="插件配置弹窗示例">
  <defs>
    <filter id="popupShadow" x="-15%" y="-15%" width="130%" height="130%">
      <feDropShadow dx="0" dy="12" stdDeviation="18" flood-color="#0f172a" flood-opacity="0.22"/>
    </filter>
  </defs>
  <rect width="760" height="540" fill="#111111"/>
  <rect width="760" height="68" fill="#2d2d2d"/>
  <g transform="translate(142 14)">
    <circle cx="18" cy="20" r="18" fill="#3f3f46"/>
    <text x="9" y="28" fill="#e5e7eb" font-family="-apple-system, BlinkMacSystemFont, 'Segoe UI', sans-serif" font-size="20">G</text>
    <circle cx="82" cy="20" r="18" fill="#3f3f46"/>
    <text x="70" y="28" fill="#e5e7eb" font-family="-apple-system, BlinkMacSystemFont, 'Segoe UI', sans-serif" font-size="22">★</text>
    <circle cx="146" cy="20" r="28" fill="#444" stroke="#737373" stroke-width="2"/>
    <text x="133" y="29" fill="#e5e7eb" font-family="-apple-system, BlinkMacSystemFont, 'Segoe UI', sans-serif" font-size="24">⌘</text>
    <rect x="210" y="3" width="34" height="34" rx="7" fill="#ef4444"/>
    <text x="216" y="29" fill="#fff" font-family="-apple-system, BlinkMacSystemFont, 'Segoe UI', sans-serif" font-size="22" font-weight="700">FE</text>
    <circle cx="302" cy="20" r="18" fill="#9ca3af"/>
    <text x="287" y="27" fill="#fff" font-family="-apple-system, BlinkMacSystemFont, 'Segoe UI', sans-serif" font-size="15" font-weight="700">ABP</text>
    <circle cx="376" cy="20" r="18" fill="#1d4ed8"/>
    <text x="364" y="26" fill="#fff" font-family="-apple-system, BlinkMacSystemFont, 'Segoe UI', sans-serif" font-size="11">GPT</text>
    <circle cx="460" cy="20" r="34" fill="#4b5563"/>
    <text x="443" y="29" fill="#38bdf8" font-family="-apple-system, BlinkMacSystemFont, 'Segoe UI', sans-serif" font-size="26">🐳</text>
  </g>
  <g filter="url(#popupShadow)">
    <rect x="44" y="68" width="602" height="472" fill="#f8fafc"/>
    <rect x="68" y="92" width="552" height="448" rx="18" fill="#ffffff" stroke="#d8e0eb" stroke-width="2"/>
    <g font-family="-apple-system, BlinkMacSystemFont, 'Segoe UI', sans-serif">
      <text x="98" y="151" font-size="29" fill="#111827" font-weight="750">DeepSeek 划词翻译</text>
      <text x="98" y="209" font-size="24" fill="#475569">DeepSeek API Key</text>
      <rect x="98" y="238" width="492" height="64" rx="12" fill="#ffffff" stroke="#cbd5e1" stroke-width="2"/>
      <text x="120" y="281" font-size="28" fill="#111827" letter-spacing="4">••••••••••••••••••••••••••</text>
      <text x="98" y="347" font-size="24" fill="#475569">气泡文字大小</text>
      <text x="528" y="347" font-size="24" fill="#111827" font-weight="700">20px</text>
      <line x1="105" y1="395" x2="578" y2="395" stroke="#1683ff" stroke-width="14" stroke-linecap="round"/>
      <circle cx="578" cy="395" r="16" fill="#1683ff"/>
      <rect x="98" y="435" width="492" height="64" rx="12" fill="#111827"/>
      <text x="321" y="476" font-size="25" fill="#ffffff" font-weight="700">保存</text>
    </g>
  </g>
</svg>
